<mxfile host="65bd71144e">
    <diagram id="_7FWhwzHKVUm6psSgaa0" name="第 1 页">
        <mxGraphModel dx="796" dy="575" grid="1" gridSize="10" guides="1" tooltips="1" connect="1" arrows="1" fold="1" page="1" pageScale="1" pageWidth="827" pageHeight="1169" background="#ffffff" math="0" shadow="0">
            <root>
                <mxCell id="0"/>
                <mxCell id="1" parent="0"/>
                <mxCell id="2" value="&lt;font face=&quot;Times New Roman&quot;&gt;23&lt;/font&gt;" style="ellipse;whiteSpace=wrap;html=1;aspect=fixed;" parent="1" vertex="1">
                    <mxGeometry x="130" y="170" width="20" height="20" as="geometry"/>
                </mxCell>
                <mxCell id="3" value="&lt;font face=&quot;Times New Roman&quot;&gt;7&lt;/font&gt;" style="ellipse;whiteSpace=wrap;html=1;aspect=fixed;" parent="1" vertex="1">
                    <mxGeometry x="190" y="170" width="20" height="20" as="geometry"/>
                </mxCell>
                <mxCell id="4" value="&lt;font face=&quot;Times New Roman&quot;&gt;3&lt;/font&gt;" style="ellipse;whiteSpace=wrap;html=1;aspect=fixed;" parent="1" vertex="1">
                    <mxGeometry x="270" y="170" width="20" height="20" as="geometry"/>
                </mxCell>
                <mxCell id="5" value="&lt;font face=&quot;Times New Roman&quot;&gt;17&lt;/font&gt;" style="ellipse;whiteSpace=wrap;html=1;aspect=fixed;" parent="1" vertex="1">
                    <mxGeometry x="392" y="170" width="20" height="20" as="geometry"/>
                </mxCell>
                <mxCell id="9" value="&lt;font face=&quot;Times New Roman&quot;&gt;24&lt;/font&gt;" style="ellipse;whiteSpace=wrap;html=1;aspect=fixed;" parent="1" vertex="1">
                    <mxGeometry x="498" y="170" width="20" height="20" as="geometry"/>
                </mxCell>
                <mxCell id="10" value="&lt;font face=&quot;Times New Roman&quot;&gt;52&lt;/font&gt;" style="ellipse;whiteSpace=wrap;html=1;aspect=fixed;" parent="1" vertex="1">
                    <mxGeometry x="270" y="220" width="20" height="20" as="geometry"/>
                </mxCell>
                <mxCell id="11" value="&lt;font face=&quot;Times New Roman&quot;&gt;38&lt;/font&gt;" style="ellipse;whiteSpace=wrap;html=1;aspect=fixed;" parent="1" vertex="1">
                    <mxGeometry x="320" y="220" width="20" height="20" as="geometry"/>
                </mxCell>
                <mxCell id="13" value="&lt;font face=&quot;Times New Roman&quot;&gt;41&lt;/font&gt;" style="ellipse;whiteSpace=wrap;html=1;aspect=fixed;" parent="1" vertex="1">
                    <mxGeometry x="320" y="270" width="20" height="20" as="geometry"/>
                </mxCell>
                <mxCell id="14" value="&lt;font face=&quot;Times New Roman&quot;&gt;30&lt;/font&gt;" style="ellipse;whiteSpace=wrap;html=1;aspect=fixed;" parent="1" vertex="1">
                    <mxGeometry x="392" y="220" width="20" height="20" as="geometry"/>
                </mxCell>
                <mxCell id="15" value="&lt;font face=&quot;Times New Roman&quot;&gt;46&lt;/font&gt;" style="ellipse;whiteSpace=wrap;html=1;aspect=fixed;" parent="1" vertex="1">
                    <mxGeometry x="528" y="220" width="20" height="20" as="geometry"/>
                </mxCell>
                <mxCell id="16" value="&lt;font face=&quot;Times New Roman&quot;&gt;35&lt;/font&gt;" style="ellipse;whiteSpace=wrap;html=1;aspect=fixed;" parent="1" vertex="1">
                    <mxGeometry x="468" y="270" width="20" height="20" as="geometry"/>
                </mxCell>
                <mxCell id="17" value="&lt;font face=&quot;Times New Roman&quot; color=&quot;#ffffff&quot;&gt;26&lt;/font&gt;" style="ellipse;whiteSpace=wrap;html=1;aspect=fixed;fillColor=#33001A;" parent="1" vertex="1">
                    <mxGeometry x="468" y="220" width="20" height="20" as="geometry"/>
                </mxCell>
                <mxCell id="19" value="&lt;font face=&quot;Times New Roman&quot; color=&quot;#ffffff&quot;&gt;18&lt;/font&gt;" style="ellipse;whiteSpace=wrap;html=1;aspect=fixed;fillColor=#33001A;" parent="1" vertex="1">
                    <mxGeometry x="220" y="220" width="20" height="20" as="geometry"/>
                </mxCell>
                <mxCell id="20" value="&lt;font face=&quot;Times New Roman&quot; color=&quot;#ffffff&quot;&gt;39&lt;/font&gt;" style="ellipse;whiteSpace=wrap;html=1;aspect=fixed;fillColor=#33001A;" parent="1" vertex="1">
                    <mxGeometry x="220" y="270" width="20" height="20" as="geometry"/>
                </mxCell>
                <mxCell id="21" value="" style="endArrow=classic;html=1;fontFamily=Times New Roman;fontColor=#FFFFFF;exitX=1;exitY=0;exitDx=0;exitDy=0;entryX=0;entryY=0;entryDx=0;entryDy=0;" parent="1" source="4" target="5" edge="1">
                    <mxGeometry width="50" height="50" relative="1" as="geometry">
                        <mxPoint x="380" y="320" as="sourcePoint"/>
                        <mxPoint x="430" y="270" as="targetPoint"/>
                    </mxGeometry>
                </mxCell>
                <mxCell id="22" value="" style="endArrow=classic;html=1;fontFamily=Times New Roman;fontColor=#FFFFFF;exitX=1;exitY=0;exitDx=0;exitDy=0;entryX=0;entryY=0;entryDx=0;entryDy=0;" parent="1" source="5" target="9" edge="1">
                    <mxGeometry width="50" height="50" relative="1" as="geometry">
                        <mxPoint x="402" y="320" as="sourcePoint"/>
                        <mxPoint x="452" y="270" as="targetPoint"/>
                    </mxGeometry>
                </mxCell>
                <mxCell id="23" value="" style="endArrow=classic;html=1;fontFamily=Times New Roman;fontColor=#FFFFFF;exitX=1;exitY=0;exitDx=0;exitDy=0;entryX=0;entryY=0;entryDx=0;entryDy=0;" parent="1" source="3" target="4" edge="1">
                    <mxGeometry width="50" height="50" relative="1" as="geometry">
                        <mxPoint x="380" y="320" as="sourcePoint"/>
                        <mxPoint x="430" y="270" as="targetPoint"/>
                    </mxGeometry>
                </mxCell>
                <mxCell id="24" value="" style="endArrow=classic;html=1;fontFamily=Times New Roman;fontColor=#FFFFFF;exitX=1;exitY=0;exitDx=0;exitDy=0;entryX=0;entryY=0;entryDx=0;entryDy=0;" parent="1" source="2" target="3" edge="1">
                    <mxGeometry width="50" height="50" relative="1" as="geometry">
                        <mxPoint x="380" y="320" as="sourcePoint"/>
                        <mxPoint x="430" y="270" as="targetPoint"/>
                    </mxGeometry>
                </mxCell>
                <mxCell id="25" value="" style="endArrow=classic;html=1;fontFamily=Times New Roman;fontColor=#FFFFFF;exitX=1;exitY=0;exitDx=0;exitDy=0;entryX=0;entryY=0;entryDx=0;entryDy=0;" parent="1" source="9" target="2" edge="1">
                    <mxGeometry width="50" height="50" relative="1" as="geometry">
                        <mxPoint x="380" y="320" as="sourcePoint"/>
                        <mxPoint x="90" y="150" as="targetPoint"/>
                        <Array as="points">
                            <mxPoint x="550" y="173"/>
                            <mxPoint x="550" y="160"/>
                            <mxPoint x="100" y="160"/>
                            <mxPoint x="100" y="173"/>
                        </Array>
                    </mxGeometry>
                </mxCell>
                <mxCell id="26" value="" style="endArrow=classic;html=1;fontFamily=Times New Roman;fontColor=#FFFFFF;entryX=1;entryY=1;entryDx=0;entryDy=0;exitX=0;exitY=1;exitDx=0;exitDy=0;" parent="1" source="3" target="2" edge="1">
                    <mxGeometry width="50" height="50" relative="1" as="geometry">
                        <mxPoint x="380" y="320" as="sourcePoint"/>
                        <mxPoint x="430" y="270" as="targetPoint"/>
                    </mxGeometry>
                </mxCell>
                <mxCell id="27" value="" style="endArrow=classic;html=1;fontFamily=Times New Roman;fontColor=#FFFFFF;entryX=1;entryY=1;entryDx=0;entryDy=0;exitX=0;exitY=1;exitDx=0;exitDy=0;" parent="1" source="4" target="3" edge="1">
                    <mxGeometry width="50" height="50" relative="1" as="geometry">
                        <mxPoint x="202.92893218813447" y="197.07106781186553" as="sourcePoint"/>
                        <mxPoint x="157.07106781186553" y="197.07106781186553" as="targetPoint"/>
                    </mxGeometry>
                </mxCell>
                <mxCell id="28" value="" style="endArrow=classic;html=1;fontFamily=Times New Roman;fontColor=#FFFFFF;entryX=1;entryY=1;entryDx=0;entryDy=0;exitX=0;exitY=1;exitDx=0;exitDy=0;" parent="1" source="5" target="4" edge="1">
                    <mxGeometry width="50" height="50" relative="1" as="geometry">
                        <mxPoint x="339.99893218813446" y="189.00106781186554" as="sourcePoint"/>
                        <mxPoint x="294.1410678118655" y="189.00106781186554" as="targetPoint"/>
                    </mxGeometry>
                </mxCell>
                <mxCell id="29" value="" style="endArrow=classic;html=1;fontFamily=Times New Roman;fontColor=#FFFFFF;entryX=1;entryY=1;entryDx=0;entryDy=0;exitX=0;exitY=1;exitDx=0;exitDy=0;" parent="1" source="9" target="5" edge="1">
                    <mxGeometry width="50" height="50" relative="1" as="geometry">
                        <mxPoint x="244.92893218813447" y="217.07106781186553" as="sourcePoint"/>
                        <mxPoint x="199.07106781186553" y="217.07106781186553" as="targetPoint"/>
                    </mxGeometry>
                </mxCell>
                <mxCell id="30" value="" style="endArrow=classic;html=1;fontFamily=Times New Roman;fontColor=#FFFFFF;exitX=0;exitY=1;exitDx=0;exitDy=0;entryX=1;entryY=1;entryDx=0;entryDy=0;" parent="1" source="2" target="9" edge="1">
                    <mxGeometry width="50" height="50" relative="1" as="geometry">
                        <mxPoint x="232.92893218813447" y="227.07106781186553" as="sourcePoint"/>
                        <mxPoint x="540" y="210" as="targetPoint"/>
                        <Array as="points">
                            <mxPoint x="100" y="187"/>
                            <mxPoint x="100" y="200"/>
                            <mxPoint x="550" y="200"/>
                            <mxPoint x="550" y="187"/>
                        </Array>
                    </mxGeometry>
                </mxCell>
                <mxCell id="31" value="" style="endArrow=classic;html=1;fontFamily=Times New Roman;fontColor=#FFFFFF;entryX=0.5;entryY=0;entryDx=0;entryDy=0;" parent="1" target="4" edge="1">
                    <mxGeometry width="50" height="50" relative="1" as="geometry">
                        <mxPoint x="280" y="140" as="sourcePoint"/>
                        <mxPoint x="430" y="270" as="targetPoint"/>
                    </mxGeometry>
                </mxCell>
                <mxCell id="32" value="&lt;font color=&quot;#33001a&quot; size=&quot;1&quot;&gt;&lt;i style=&quot;font-size: 14px&quot;&gt;H.min&lt;/i&gt;&lt;/font&gt;" style="text;html=1;align=center;verticalAlign=middle;resizable=0;points=[];autosize=1;strokeColor=none;fillColor=none;fontFamily=Times New Roman;fontColor=#FFFFFF;" parent="1" vertex="1">
                    <mxGeometry x="255" y="120" width="50" height="20" as="geometry"/>
                </mxCell>
                <mxCell id="33" value="" style="endArrow=classic;html=1;fontFamily=Times New Roman;fontSize=14;fontColor=#33001A;exitX=0.5;exitY=0;exitDx=0;exitDy=0;entryX=0;entryY=1;entryDx=0;entryDy=0;" parent="1" source="19" target="4" edge="1">
                    <mxGeometry width="50" height="50" relative="1" as="geometry">
                        <mxPoint x="380" y="320" as="sourcePoint"/>
                        <mxPoint x="430" y="270" as="targetPoint"/>
                    </mxGeometry>
                </mxCell>
                <mxCell id="34" value="" style="endArrow=classic;html=1;fontFamily=Times New Roman;fontSize=14;fontColor=#33001A;exitX=0;exitY=0;exitDx=0;exitDy=0;entryX=0;entryY=1;entryDx=0;entryDy=0;" parent="1" source="10" target="4" edge="1">
                    <mxGeometry width="50" height="50" relative="1" as="geometry">
                        <mxPoint x="380" y="320" as="sourcePoint"/>
                        <mxPoint x="430" y="270" as="targetPoint"/>
                    </mxGeometry>
                </mxCell>
                <mxCell id="35" value="" style="endArrow=classic;html=1;fontFamily=Times New Roman;fontSize=14;fontColor=#33001A;exitX=1;exitY=1;exitDx=0;exitDy=0;entryX=1;entryY=0;entryDx=0;entryDy=0;" parent="1" source="4" target="10" edge="1">
                    <mxGeometry width="50" height="50" relative="1" as="geometry">
                        <mxPoint x="380" y="320" as="sourcePoint"/>
                        <mxPoint x="430" y="270" as="targetPoint"/>
                    </mxGeometry>
                </mxCell>
                <mxCell id="36" value="" style="endArrow=classic;html=1;fontFamily=Times New Roman;fontSize=14;fontColor=#33001A;entryX=1;entryY=1;entryDx=0;entryDy=0;exitX=0.5;exitY=0;exitDx=0;exitDy=0;" parent="1" source="11" target="4" edge="1">
                    <mxGeometry width="50" height="50" relative="1" as="geometry">
                        <mxPoint x="380" y="320" as="sourcePoint"/>
                        <mxPoint x="430" y="270" as="targetPoint"/>
                    </mxGeometry>
                </mxCell>
                <mxCell id="37" value="" style="endArrow=classic;html=1;fontFamily=Times New Roman;fontSize=14;fontColor=#33001A;exitX=1;exitY=0;exitDx=0;exitDy=0;entryX=0;entryY=0;entryDx=0;entryDy=0;" parent="1" source="19" target="10" edge="1">
                    <mxGeometry width="50" height="50" relative="1" as="geometry">
                        <mxPoint x="380" y="320" as="sourcePoint"/>
                        <mxPoint x="430" y="270" as="targetPoint"/>
                    </mxGeometry>
                </mxCell>
                <mxCell id="38" value="" style="endArrow=classic;html=1;fontFamily=Times New Roman;fontSize=14;fontColor=#33001A;entryX=0;entryY=0;entryDx=0;entryDy=0;exitX=1;exitY=0;exitDx=0;exitDy=0;" parent="1" source="10" target="11" edge="1">
                    <mxGeometry width="50" height="50" relative="1" as="geometry">
                        <mxPoint x="280" y="223" as="sourcePoint"/>
                        <mxPoint x="282.92893218813447" y="232.92893218813447" as="targetPoint"/>
                    </mxGeometry>
                </mxCell>
                <mxCell id="39" value="" style="endArrow=classic;html=1;fontFamily=Times New Roman;fontSize=14;fontColor=#33001A;exitX=1;exitY=0;exitDx=0;exitDy=0;entryX=0;entryY=0;entryDx=0;entryDy=0;" parent="1" source="17" target="15" edge="1">
                    <mxGeometry width="50" height="50" relative="1" as="geometry">
                        <mxPoint x="305.07106781186553" y="242.92893218813447" as="sourcePoint"/>
                        <mxPoint x="340.92893218813447" y="242.92893218813447" as="targetPoint"/>
                    </mxGeometry>
                </mxCell>
                <mxCell id="40" value="" style="endArrow=classic;html=1;fontFamily=Times New Roman;fontSize=14;fontColor=#33001A;exitX=0;exitY=1;exitDx=0;exitDy=0;entryX=1;entryY=1;entryDx=0;entryDy=0;" parent="1" source="15" target="17" edge="1">
                    <mxGeometry width="50" height="50" relative="1" as="geometry">
                        <mxPoint x="315.07106781186553" y="252.92893218813447" as="sourcePoint"/>
                        <mxPoint x="588" y="290" as="targetPoint"/>
                    </mxGeometry>
                </mxCell>
                <mxCell id="41" value="" style="endArrow=classic;html=1;fontFamily=Times New Roman;fontSize=14;fontColor=#33001A;exitX=0;exitY=1;exitDx=0;exitDy=0;entryX=0;entryY=0;entryDx=0;entryDy=0;" parent="1" source="19" target="20" edge="1">
                    <mxGeometry width="50" height="50" relative="1" as="geometry">
                        <mxPoint x="277.07106781186553" y="262.92893218813447" as="sourcePoint"/>
                        <mxPoint x="312.92893218813447" y="262.92893218813447" as="targetPoint"/>
                    </mxGeometry>
                </mxCell>
                <mxCell id="42" value="" style="endArrow=classic;html=1;fontFamily=Times New Roman;fontSize=14;fontColor=#33001A;exitX=1;exitY=0;exitDx=0;exitDy=0;entryX=1;entryY=1;entryDx=0;entryDy=0;" parent="1" source="20" target="19" edge="1">
                    <mxGeometry width="50" height="50" relative="1" as="geometry">
                        <mxPoint x="287.07106781186553" y="272.92893218813447" as="sourcePoint"/>
                        <mxPoint x="322.92893218813447" y="272.92893218813447" as="targetPoint"/>
                    </mxGeometry>
                </mxCell>
                <mxCell id="43" value="" style="endArrow=classic;html=1;fontFamily=Times New Roman;fontSize=14;fontColor=#33001A;exitX=0;exitY=1;exitDx=0;exitDy=0;entryX=0;entryY=0;entryDx=0;entryDy=0;" parent="1" source="11" target="13" edge="1">
                    <mxGeometry width="50" height="50" relative="1" as="geometry">
                        <mxPoint x="297.07106781186553" y="282.92893218813447" as="sourcePoint"/>
                        <mxPoint x="332.92893218813447" y="282.92893218813447" as="targetPoint"/>
                    </mxGeometry>
                </mxCell>
                <mxCell id="44" value="" style="endArrow=classic;html=1;fontFamily=Times New Roman;fontSize=14;fontColor=#33001A;exitX=1;exitY=0;exitDx=0;exitDy=0;entryX=1;entryY=1;entryDx=0;entryDy=0;" parent="1" source="13" target="11" edge="1">
                    <mxGeometry width="50" height="50" relative="1" as="geometry">
                        <mxPoint x="307.07106781186553" y="292.92893218813447" as="sourcePoint"/>
                        <mxPoint x="342.92893218813447" y="292.92893218813447" as="targetPoint"/>
                    </mxGeometry>
                </mxCell>
                <mxCell id="45" value="" style="endArrow=classic;html=1;fontFamily=Times New Roman;fontSize=14;fontColor=#33001A;exitX=0;exitY=1;exitDx=0;exitDy=0;entryX=0;entryY=0;entryDx=0;entryDy=0;" parent="1" source="5" target="14" edge="1">
                    <mxGeometry width="50" height="50" relative="1" as="geometry">
                        <mxPoint x="339.07106781186553" y="302.92893218813447" as="sourcePoint"/>
                        <mxPoint x="374.92893218813447" y="302.92893218813447" as="targetPoint"/>
                    </mxGeometry>
                </mxCell>
                <mxCell id="46" value="" style="endArrow=classic;html=1;fontFamily=Times New Roman;fontSize=14;fontColor=#33001A;exitX=1;exitY=0;exitDx=0;exitDy=0;entryX=1;entryY=1;entryDx=0;entryDy=0;" parent="1" source="14" target="5" edge="1">
                    <mxGeometry width="50" height="50" relative="1" as="geometry">
                        <mxPoint x="349.07106781186553" y="312.92893218813447" as="sourcePoint"/>
                        <mxPoint x="384.92893218813447" y="312.92893218813447" as="targetPoint"/>
                    </mxGeometry>
                </mxCell>
                <mxCell id="47" value="" style="endArrow=classic;html=1;fontFamily=Times New Roman;fontSize=14;fontColor=#33001A;exitX=0;exitY=0;exitDx=0;exitDy=0;entryX=0;entryY=1;entryDx=0;entryDy=0;" parent="1" source="17" target="9" edge="1">
                    <mxGeometry width="50" height="50" relative="1" as="geometry">
                        <mxPoint x="385.07106781186553" y="322.92893218813447" as="sourcePoint"/>
                        <mxPoint x="420.92893218813447" y="322.92893218813447" as="targetPoint"/>
                    </mxGeometry>
                </mxCell>
                <mxCell id="48" value="" style="endArrow=classic;html=1;fontFamily=Times New Roman;fontSize=14;fontColor=#33001A;exitX=0.5;exitY=1;exitDx=0;exitDy=0;entryX=1;entryY=0;entryDx=0;entryDy=0;" parent="1" source="9" target="17" edge="1">
                    <mxGeometry width="50" height="50" relative="1" as="geometry">
                        <mxPoint x="395.07106781186553" y="332.92893218813447" as="sourcePoint"/>
                        <mxPoint x="528" y="290" as="targetPoint"/>
                    </mxGeometry>
                </mxCell>
                <mxCell id="49" value="" style="endArrow=classic;html=1;fontFamily=Times New Roman;fontSize=14;fontColor=#33001A;exitX=0.5;exitY=0;exitDx=0;exitDy=0;entryX=1;entryY=1;entryDx=0;entryDy=0;" parent="1" source="15" target="9" edge="1">
                    <mxGeometry width="50" height="50" relative="1" as="geometry">
                        <mxPoint x="405.07106781186553" y="342.92893218813447" as="sourcePoint"/>
                        <mxPoint x="440.92893218813447" y="342.92893218813447" as="targetPoint"/>
                    </mxGeometry>
                </mxCell>
                <mxCell id="50" value="" style="endArrow=classic;html=1;fontFamily=Times New Roman;fontSize=14;fontColor=#33001A;exitX=0;exitY=1;exitDx=0;exitDy=0;entryX=0;entryY=0;entryDx=0;entryDy=0;" parent="1" source="17" target="16" edge="1">
                    <mxGeometry width="50" height="50" relative="1" as="geometry">
                        <mxPoint x="415.07106781186553" y="352.92893218813447" as="sourcePoint"/>
                        <mxPoint x="450.92893218813447" y="352.92893218813447" as="targetPoint"/>
                    </mxGeometry>
                </mxCell>
                <mxCell id="51" value="" style="endArrow=classic;html=1;fontFamily=Times New Roman;fontSize=14;fontColor=#33001A;exitX=1;exitY=0;exitDx=0;exitDy=0;entryX=1;entryY=1;entryDx=0;entryDy=0;" parent="1" source="16" target="17" edge="1">
                    <mxGeometry width="50" height="50" relative="1" as="geometry">
                        <mxPoint x="425.07106781186553" y="362.92893218813447" as="sourcePoint"/>
                        <mxPoint x="460.92893218813447" y="362.92893218813447" as="targetPoint"/>
                    </mxGeometry>
                </mxCell>
                <mxCell id="52" value="" style="endArrow=classic;html=1;fontFamily=Times New Roman;fontSize=14;fontColor=#33001A;exitX=0;exitY=1;exitDx=0;exitDy=0;entryX=1;entryY=1;entryDx=0;entryDy=0;" parent="1" source="11" target="10" edge="1">
                    <mxGeometry width="50" height="50" relative="1" as="geometry">
                        <mxPoint x="387.07106781186553" y="372.92893218813447" as="sourcePoint"/>
                        <mxPoint x="422.92893218813447" y="372.92893218813447" as="targetPoint"/>
                    </mxGeometry>
                </mxCell>
                <mxCell id="53" value="" style="endArrow=classic;html=1;fontFamily=Times New Roman;fontSize=14;fontColor=#33001A;exitX=0;exitY=1;exitDx=0;exitDy=0;entryX=1;entryY=1;entryDx=0;entryDy=0;" parent="1" source="10" target="19" edge="1">
                    <mxGeometry width="50" height="50" relative="1" as="geometry">
                        <mxPoint x="397.07106781186553" y="382.92893218813447" as="sourcePoint"/>
                        <mxPoint x="432.92893218813447" y="382.92893218813447" as="targetPoint"/>
                    </mxGeometry>
                </mxCell>
                <mxCell id="54" value="" style="endArrow=classic;html=1;fontFamily=Times New Roman;fontSize=14;fontColor=#33001A;exitX=1;exitY=0;exitDx=0;exitDy=0;entryX=0;entryY=0;entryDx=0;entryDy=0;" parent="1" source="11" target="19" edge="1">
                    <mxGeometry width="50" height="50" relative="1" as="geometry">
                        <mxPoint x="407.07106781186553" y="392.92893218813447" as="sourcePoint"/>
                        <mxPoint x="150" y="210" as="targetPoint"/>
                        <Array as="points">
                            <mxPoint x="360" y="223"/>
                            <mxPoint x="360" y="210"/>
                            <mxPoint x="200" y="210"/>
                            <mxPoint x="200" y="223"/>
                        </Array>
                    </mxGeometry>
                </mxCell>
                <mxCell id="55" value="" style="endArrow=classic;html=1;fontFamily=Times New Roman;fontSize=14;fontColor=#33001A;exitX=0;exitY=0.5;exitDx=0;exitDy=0;entryX=1;entryY=0.5;entryDx=0;entryDy=0;" parent="1" source="19" target="11" edge="1">
                    <mxGeometry width="50" height="50" relative="1" as="geometry">
                        <mxPoint x="417.07106781186553" y="402.92893218813447" as="sourcePoint"/>
                        <mxPoint x="360" y="250" as="targetPoint"/>
                        <Array as="points">
                            <mxPoint x="200" y="230"/>
                            <mxPoint x="200" y="250"/>
                            <mxPoint x="360" y="250"/>
                            <mxPoint x="360" y="230"/>
                        </Array>
                    </mxGeometry>
                </mxCell>
                <mxCell id="56" value="" style="endArrow=classic;html=1;fontFamily=Times New Roman;fontSize=14;fontColor=#33001A;exitX=1;exitY=0;exitDx=0;exitDy=0;entryX=0;entryY=0;entryDx=0;entryDy=0;" parent="1" source="14" target="14" edge="1">
                    <mxGeometry width="50" height="50" relative="1" as="geometry">
                        <mxPoint x="380" y="320" as="sourcePoint"/>
                        <mxPoint x="370" y="210" as="targetPoint"/>
                        <Array as="points">
                            <mxPoint x="430" y="223"/>
                            <mxPoint x="430" y="210"/>
                            <mxPoint x="370" y="210"/>
                            <mxPoint x="370" y="223"/>
                        </Array>
                    </mxGeometry>
                </mxCell>
                <mxCell id="57" value="" style="endArrow=classic;html=1;fontFamily=Times New Roman;fontSize=14;fontColor=#33001A;exitX=0;exitY=1;exitDx=0;exitDy=0;entryX=1;entryY=1;entryDx=0;entryDy=0;" parent="1" source="14" target="14" edge="1">
                    <mxGeometry width="50" height="50" relative="1" as="geometry">
                        <mxPoint x="380" y="320" as="sourcePoint"/>
                        <mxPoint x="430" y="237" as="targetPoint"/>
                        <Array as="points">
                            <mxPoint x="370" y="237"/>
                            <mxPoint x="370" y="250"/>
                            <mxPoint x="430" y="250"/>
                            <mxPoint x="430" y="237"/>
                        </Array>
                    </mxGeometry>
                </mxCell>
                <mxCell id="75" value="" style="endArrow=classic;html=1;fontFamily=Times New Roman;fontSize=14;fontColor=#33001A;exitX=1;exitY=0;exitDx=0;exitDy=0;" parent="1" source="15" edge="1">
                    <mxGeometry width="50" height="50" relative="1" as="geometry">
                        <mxPoint x="380" y="320" as="sourcePoint"/>
                        <mxPoint x="470" y="223" as="targetPoint"/>
                        <Array as="points">
                            <mxPoint x="560" y="223"/>
                            <mxPoint x="560" y="210"/>
                            <mxPoint x="450" y="210"/>
                            <mxPoint x="450" y="223"/>
                        </Array>
                    </mxGeometry>
                </mxCell>
                <mxCell id="77" value="" style="endArrow=classic;html=1;fontFamily=Times New Roman;fontSize=14;fontColor=#33001A;exitX=0;exitY=1;exitDx=0;exitDy=0;entryX=1;entryY=1;entryDx=0;entryDy=0;" parent="1" source="17" target="15" edge="1">
                    <mxGeometry width="50" height="50" relative="1" as="geometry">
                        <mxPoint x="470" y="240" as="sourcePoint"/>
                        <mxPoint x="570" y="237" as="targetPoint"/>
                        <Array as="points">
                            <mxPoint x="450" y="237"/>
                            <mxPoint x="450" y="250"/>
                            <mxPoint x="560" y="250"/>
                            <mxPoint x="560" y="237"/>
                        </Array>
                    </mxGeometry>
                </mxCell>
                <mxCell id="78" value="" style="endArrow=classic;html=1;fontFamily=Times New Roman;fontSize=14;fontColor=#33001A;exitX=1;exitY=0;exitDx=0;exitDy=0;entryX=0;entryY=0;entryDx=0;entryDy=0;" parent="1" edge="1">
                    <mxGeometry width="50" height="50" relative="1" as="geometry">
                        <mxPoint x="239.07106781186553" y="272.92893218813447" as="sourcePoint"/>
                        <mxPoint x="224.92893218813447" y="272.92893218813447" as="targetPoint"/>
                        <Array as="points">
                            <mxPoint x="260" y="273"/>
                            <mxPoint x="260" y="260"/>
                            <mxPoint x="200" y="260"/>
                            <mxPoint x="200" y="273"/>
                        </Array>
                    </mxGeometry>
                </mxCell>
                <mxCell id="79" value="" style="endArrow=classic;html=1;fontFamily=Times New Roman;fontSize=14;fontColor=#33001A;exitX=1;exitY=0;exitDx=0;exitDy=0;entryX=0;entryY=0;entryDx=0;entryDy=0;" parent="1" edge="1">
                    <mxGeometry width="50" height="50" relative="1" as="geometry">
                        <mxPoint x="339.07106781186553" y="272.92893218813447" as="sourcePoint"/>
                        <mxPoint x="324.92893218813447" y="272.92893218813447" as="targetPoint"/>
                        <Array as="points">
                            <mxPoint x="360" y="273"/>
                            <mxPoint x="360" y="260"/>
                            <mxPoint x="300" y="260"/>
                            <mxPoint x="300" y="273"/>
                        </Array>
                    </mxGeometry>
                </mxCell>
                <mxCell id="80" value="" style="endArrow=classic;html=1;fontFamily=Times New Roman;fontSize=14;fontColor=#33001A;exitX=1;exitY=0;exitDx=0;exitDy=0;entryX=0;entryY=0;entryDx=0;entryDy=0;" parent="1" edge="1">
                    <mxGeometry width="50" height="50" relative="1" as="geometry">
                        <mxPoint x="487.07106781186553" y="272.92893218813447" as="sourcePoint"/>
                        <mxPoint x="472.92893218813447" y="272.92893218813447" as="targetPoint"/>
                        <Array as="points">
                            <mxPoint x="508" y="273"/>
                            <mxPoint x="508" y="260"/>
                            <mxPoint x="448" y="260"/>
                            <mxPoint x="448" y="273"/>
                        </Array>
                    </mxGeometry>
                </mxCell>
                <mxCell id="82" value="" style="endArrow=classic;html=1;fontFamily=Times New Roman;fontSize=14;fontColor=#33001A;exitX=0;exitY=1;exitDx=0;exitDy=0;entryX=1;entryY=1;entryDx=0;entryDy=0;" parent="1" source="16" target="16" edge="1">
                    <mxGeometry width="50" height="50" relative="1" as="geometry">
                        <mxPoint x="380" y="320" as="sourcePoint"/>
                        <mxPoint x="520" y="287" as="targetPoint"/>
                        <Array as="points">
                            <mxPoint x="450" y="287"/>
                            <mxPoint x="450" y="300"/>
                            <mxPoint x="510" y="300"/>
                            <mxPoint x="510" y="287"/>
                        </Array>
                    </mxGeometry>
                </mxCell>
                <mxCell id="84" value="" style="endArrow=classic;html=1;fontFamily=Times New Roman;fontSize=14;fontColor=#33001A;exitX=0;exitY=1;exitDx=0;exitDy=0;entryX=1;entryY=1;entryDx=0;entryDy=0;" parent="1" source="13" target="13" edge="1">
                    <mxGeometry width="50" height="50" relative="1" as="geometry">
                        <mxPoint x="380" y="320" as="sourcePoint"/>
                        <mxPoint x="340" y="280" as="targetPoint"/>
                        <Array as="points">
                            <mxPoint x="300" y="287"/>
                            <mxPoint x="300" y="300"/>
                            <mxPoint x="360" y="300"/>
                            <mxPoint x="360" y="287"/>
                        </Array>
                    </mxGeometry>
                </mxCell>
                <mxCell id="86" value="" style="endArrow=classic;html=1;fontFamily=Times New Roman;fontSize=14;fontColor=#33001A;exitX=0;exitY=1;exitDx=0;exitDy=0;entryX=1;entryY=1;entryDx=0;entryDy=0;" parent="1" source="20" target="20" edge="1">
                    <mxGeometry width="50" height="50" relative="1" as="geometry">
                        <mxPoint x="380" y="320" as="sourcePoint"/>
                        <mxPoint x="290" y="310" as="targetPoint"/>
                        <Array as="points">
                            <mxPoint x="200" y="287"/>
                            <mxPoint x="200" y="300"/>
                            <mxPoint x="260" y="300"/>
                            <mxPoint x="260" y="287"/>
                        </Array>
                    </mxGeometry>
                </mxCell>
            </root>
        </mxGraphModel>
    </diagram>
</mxfile>